<svg width="512" height="512" version="1.1" viewBox="0 0 135.47 135.47" xmlns="http://www.w3.org/2000/svg">
<g transform="translate(0 -161.53)">
<g transform="matrix(1.0114 0 0 1.0114 -124.02 -260.82)">
<rect class="st5" x="122.76" y="417.5" width="134.03" height="134.03" fill="#f32735"/>
<g fill="#fff">
<path class="st8" d="m170.92 467.38c1.52 0 2.77-0.6 3.74-1.81l1.99 2.05c-1.58 1.78-3.44 2.66-5.58 2.66s-3.9-0.68-5.29-2.03-2.08-3.06-2.08-5.12 0.71-3.78 2.12-5.16 3.14-2.07 5.18-2.07c2.28 0 4.19 0.87 5.73 2.6l-1.93 2.19c-0.98-1.22-2.2-1.83-3.66-1.83-1.17 0-2.16 0.38-2.99 1.14s-1.24 1.79-1.24 3.08 0.39 2.33 1.17 3.11 1.73 1.19 2.84 1.19z"/>
<path class="st8" d="m190.98 468.2c-1.4 1.37-3.13 2.06-5.19 2.06s-3.78-0.69-5.19-2.06-2.11-3.08-2.11-5.12 0.7-3.75 2.11-5.12c1.4-1.37 3.13-2.06 5.19-2.06s3.78 0.69 5.19 2.06c1.4 1.37 2.11 3.08 2.11 5.12 0 2.05-0.71 3.75-2.11 5.12zm-1.05-5.11c0-1.24-0.4-2.3-1.19-3.17s-1.77-1.31-2.93-1.31-2.14 0.44-2.93 1.31c-0.8 0.88-1.19 1.93-1.19 3.17s0.4 2.29 1.19 3.16c0.8 0.87 1.77 1.3 2.93 1.3s2.14-0.43 2.93-1.3c0.79-0.86 1.19-1.92 1.19-3.16z"/>
<path class="st8" d="m206.82 458.04c1.33 1.21 1.99 2.9 1.99 5.06s-0.65 3.87-1.94 5.13-3.26 1.89-5.91 1.89h-4.75v-13.9h4.91c2.48 0.01 4.38 0.61 5.7 1.82zm-2.27 8.27c0.76-0.72 1.14-1.76 1.14-3.12s-0.38-2.42-1.14-3.15c-0.76-0.74-1.93-1.1-3.51-1.1h-1.73v8.45h1.97c1.42-0.01 2.51-0.37 3.27-1.08z"/>
<path class="st8" d="m222.01 456.23v2.76h-6.92v2.86h6.22v2.64h-6.22v2.88h7.14v2.74h-10.24v-13.9h10.02z"/>
<path class="st8" d="m174.08 478.95v2.72h-6.44v3h6.12v2.72h-6.12v5.45h-3.1v-13.9h9.54z"/>
<path class="st8" d="m188.89 490.93c-1.4 1.37-3.13 2.06-5.19 2.06-2.05 0-3.78-0.69-5.19-2.06-1.4-1.37-2.11-3.08-2.11-5.12s0.7-3.75 2.11-5.12c1.4-1.37 3.13-2.06 5.19-2.06 2.05 0 3.78 0.69 5.19 2.06 1.4 1.37 2.11 3.08 2.11 5.12s-0.7 3.74-2.11 5.12zm-1.05-5.11c0-1.24-0.4-2.3-1.19-3.17-0.8-0.87-1.77-1.31-2.93-1.31s-2.14 0.44-2.93 1.31c-0.8 0.88-1.19 1.93-1.19 3.17s0.4 2.29 1.19 3.16c0.8 0.87 1.77 1.3 2.93 1.3s2.14-0.43 2.93-1.3 1.19-1.92 1.19-3.16z"/>
<path class="st8" d="m205.39 483.56c0 2.23-0.88 3.67-2.64 4.31l3.52 4.97h-3.82l-3.08-4.43h-2.15v4.43h-3.1v-13.9h5.27c2.16 0 3.7 0.36 4.62 1.09 0.92 0.74 1.38 1.91 1.38 3.53zm-3.73 1.65c0.38-0.34 0.58-0.89 0.58-1.64s-0.2-1.26-0.6-1.54-1.09-0.42-2.09-0.42h-2.33v4.12h2.27c1.06 0 1.78-0.18 2.17-0.52z"/>
<path class="st8" d="m164.54 501.67h3.1v5.71l5.25-5.71h3.84l-5.53 6.14c0.48 0.66 1.36 1.9 2.64 3.71s2.25 3.16 2.88 4.05h-3.62l-4.08-5.49-1.39 1.55v3.94h-3.1v-13.9z"/>
<path class="st8" d="m190.12 513.65c-1.41 1.37-3.13 2.06-5.19 2.06-2.05 0-3.78-0.69-5.19-2.06s-2.11-3.08-2.11-5.12 0.7-3.75 2.11-5.12c1.4-1.37 3.13-2.06 5.19-2.06 2.05 0 3.78 0.69 5.19 2.06 1.4 1.37 2.11 3.08 2.11 5.12s-0.7 3.75-2.11 5.12zm-1.05-5.11c0-1.24-0.4-2.3-1.19-3.17-0.8-0.87-1.77-1.31-2.93-1.31s-2.14 0.44-2.93 1.31c-0.8 0.88-1.19 1.93-1.19 3.17s0.4 2.29 1.19 3.16c0.8 0.87 1.77 1.3 2.93 1.3s2.14-0.43 2.93-1.3 1.19-1.92 1.19-3.16z"/>
<path class="st8" d="m206.63 506.28c0 2.23-0.88 3.67-2.64 4.31l3.52 4.97h-3.82l-3.08-4.43h-2.15v4.43h-3.1v-13.9h5.27c2.16 0 3.7 0.36 4.62 1.09 0.92 0.74 1.38 1.91 1.38 3.53zm-3.74 1.65c0.38-0.34 0.58-0.89 0.58-1.64s-0.2-1.26-0.6-1.54-1.09-0.42-2.09-0.42h-2.33v4.12h2.27c1.06 0 1.78-0.17 2.17-0.52z"/>
<path class="st8" d="m220.32 501.67v2.76h-6.92v2.86h6.22v2.64h-6.22v2.88h7.14v2.74h-10.24v-13.9h10.02z"/>
<path class="st8" d="m233.7 515.57-1.29-3h-5.83l-1.29 3h-3.3l6-13.9h3l6 13.9zm-4.19-9.77-1.75 4.04h3.48z"/>
</g>
<g fill="#fff">
<path class="st8" d="m166.41 533.5c0.13 0 0.25-0.02 0.36-0.06s0.21-0.1 0.3-0.18 0.16-0.19 0.21-0.31c0.05-0.13 0.08-0.28 0.09-0.46h0.81c-0.01 0.26-0.06 0.5-0.16 0.72-0.1 0.21-0.23 0.4-0.39 0.55s-0.35 0.27-0.56 0.36c-0.21 0.08-0.43 0.13-0.67 0.13-0.34 0-0.64-0.05-0.89-0.17-0.25-0.11-0.46-0.27-0.62-0.48-0.17-0.21-0.29-0.46-0.37-0.76s-0.12-0.64-0.12-1.02v-0.59c0-0.38 0.04-0.72 0.12-1.02s0.2-0.55 0.37-0.76 0.37-0.37 0.62-0.48 0.54-0.17 0.88-0.17c0.26 0 0.51 0.04 0.72 0.13s0.4 0.21 0.55 0.37 0.27 0.36 0.36 0.6 0.14 0.5 0.15 0.8h-0.81c-0.02-0.39-0.11-0.68-0.28-0.87s-0.4-0.29-0.69-0.29c-0.23 0-0.41 0.04-0.56 0.12s-0.26 0.19-0.35 0.34-0.15 0.32-0.18 0.53-0.05 0.44-0.05 0.69v0.59c0 0.26 0.02 0.49 0.05 0.7s0.09 0.39 0.18 0.53c0.09 0.15 0.2 0.26 0.35 0.34 0.16 0.08 0.35 0.12 0.58 0.12z"/>
<path class="st8" d="m169.5 531.27c0-0.41 0.05-0.77 0.16-1.08s0.25-0.57 0.43-0.77c0.18-0.21 0.4-0.36 0.64-0.47 0.25-0.11 0.51-0.16 0.79-0.16s0.55 0.05 0.8 0.16c0.25 0.1 0.47 0.26 0.65 0.47s0.33 0.47 0.43 0.77c0.11 0.31 0.16 0.67 0.16 1.08v0.5c0 0.41-0.05 0.77-0.16 1.08s-0.25 0.57-0.43 0.77c-0.18 0.21-0.4 0.36-0.64 0.47-0.25 0.1-0.51 0.16-0.8 0.16-0.28 0-0.55-0.05-0.8-0.16-0.25-0.1-0.46-0.26-0.65-0.47-0.18-0.21-0.33-0.47-0.43-0.77-0.11-0.31-0.16-0.67-0.16-1.08v-0.5zm0.85 0.49c0 0.29 0.03 0.54 0.09 0.76s0.14 0.4 0.25 0.54 0.23 0.25 0.37 0.33c0.14 0.07 0.3 0.11 0.47 0.11 0.78 0 1.17-0.58 1.17-1.74v-0.5c0-0.29-0.03-0.54-0.09-0.76s-0.14-0.4-0.25-0.54-0.23-0.26-0.37-0.33-0.3-0.11-0.47-0.11-0.32 0.04-0.46 0.11-0.27 0.18-0.37 0.33-0.19 0.33-0.25 0.54c-0.06 0.22-0.09 0.47-0.09 0.76z"/>
<path class="st8" d="m174.98 531.27c0-0.43 0.04-0.8 0.13-1.12 0.08-0.31 0.2-0.57 0.36-0.77 0.15-0.2 0.34-0.35 0.56-0.45s0.46-0.15 0.72-0.15 0.49 0.05 0.68 0.16c0.19 0.1 0.36 0.26 0.49 0.45v-2.72h0.86v7.46h-0.79l-0.04-0.56c-0.14 0.21-0.3 0.38-0.5 0.49s-0.43 0.17-0.71 0.17c-0.26 0-0.5-0.05-0.71-0.15-0.22-0.1-0.4-0.26-0.55-0.46s-0.27-0.46-0.36-0.77-0.13-0.67-0.13-1.09v-0.49zm0.86 0.49c0 0.59 0.09 1.02 0.26 1.3s0.46 0.41 0.85 0.41c0.24 0 0.44-0.06 0.59-0.18s0.27-0.28 0.37-0.47v-2.65c-0.1-0.18-0.22-0.34-0.38-0.45-0.15-0.12-0.35-0.18-0.57-0.18-0.4 0-0.69 0.14-0.86 0.42s-0.26 0.71-0.26 1.3z"/>
<path class="st8" d="m182.47 534.24c-0.31 0-0.6-0.05-0.85-0.14s-0.47-0.24-0.64-0.43c-0.18-0.19-0.31-0.44-0.4-0.73s-0.14-0.64-0.14-1.04v-0.59c0-0.46 0.06-0.85 0.17-1.17s0.26-0.58 0.43-0.78c0.18-0.2 0.39-0.34 0.62-0.43s0.47-0.13 0.72-0.13c0.33 0 0.61 0.05 0.84 0.16s0.42 0.27 0.57 0.48 0.26 0.47 0.33 0.78 0.1 0.66 0.1 1.06v0.5h-2.93v0.12c0 0.56 0.11 0.97 0.32 1.23s0.52 0.38 0.91 0.38c0.15 0 0.28-0.01 0.39-0.04 0.12-0.03 0.22-0.07 0.32-0.12s0.19-0.12 0.27-0.19 0.16-0.15 0.23-0.24l0.45 0.54c-0.07 0.1-0.16 0.2-0.26 0.29s-0.22 0.18-0.36 0.25-0.3 0.13-0.48 0.18-0.38 0.06-0.61 0.06zm-0.1-4.71c-0.15 0-0.29 0.02-0.41 0.07-0.13 0.05-0.24 0.13-0.33 0.24-0.1 0.12-0.17 0.27-0.23 0.46s-0.09 0.44-0.11 0.73h2.07v-0.12c-0.01-0.2-0.03-0.39-0.07-0.56-0.03-0.17-0.09-0.32-0.16-0.44s-0.17-0.22-0.29-0.29c-0.13-0.06-0.28-0.09-0.47-0.09z"/>
<path class="st8" d="m186.12 534.14v-4.56h-0.68v-0.69h0.68v-0.55c0-0.28 0.03-0.53 0.1-0.75s0.17-0.4 0.3-0.55 0.29-0.26 0.48-0.34 0.4-0.11 0.63-0.11c0.17 0 0.34 0.03 0.52 0.08l-0.04 0.73c-0.05-0.01-0.12-0.02-0.19-0.03s-0.14-0.01-0.2-0.01c-0.23 0-0.41 0.09-0.54 0.25-0.13 0.17-0.19 0.41-0.19 0.73v0.55h0.9v0.69h-0.9v4.56z"/>
<path class="st8" d="m189.21 531.27c0-0.41 0.05-0.77 0.16-1.08s0.25-0.57 0.43-0.77c0.18-0.21 0.4-0.36 0.64-0.47 0.25-0.11 0.51-0.16 0.79-0.16s0.55 0.05 0.8 0.16c0.25 0.1 0.47 0.26 0.65 0.47s0.33 0.47 0.43 0.77c0.11 0.31 0.16 0.67 0.16 1.08v0.5c0 0.41-0.05 0.77-0.16 1.08-0.1 0.31-0.25 0.57-0.43 0.77-0.18 0.21-0.4 0.36-0.64 0.47-0.25 0.1-0.51 0.16-0.8 0.16-0.28 0-0.55-0.05-0.8-0.16-0.25-0.1-0.46-0.26-0.64-0.47s-0.33-0.47-0.43-0.77c-0.1-0.31-0.16-0.67-0.16-1.08zm0.85 0.49c0 0.29 0.03 0.54 0.09 0.76s0.14 0.4 0.25 0.54 0.23 0.25 0.37 0.33c0.14 0.07 0.3 0.11 0.47 0.11 0.78 0 1.17-0.58 1.17-1.74v-0.5c0-0.29-0.03-0.54-0.09-0.76s-0.14-0.4-0.25-0.54c-0.1-0.15-0.23-0.26-0.37-0.33s-0.3-0.11-0.47-0.11-0.32 0.04-0.46 0.11-0.27 0.18-0.37 0.33-0.19 0.33-0.24 0.54c-0.06 0.22-0.09 0.47-0.09 0.76v0.5z"/>
<path class="st8" d="m197.04 529.69c-0.07-0.01-0.13-0.02-0.19-0.03s-0.12-0.01-0.2-0.01c-0.23 0-0.43 0.06-0.58 0.19s-0.27 0.31-0.35 0.53v3.76h-0.86v-5.25h0.83l0.01 0.53c0.11-0.19 0.24-0.35 0.4-0.46s0.35-0.17 0.58-0.17c0.03 0 0.06 0 0.09 0.01s0.07 0.01 0.1 0.02 0.06 0.01 0.09 0.02 0.05 0.02 0.06 0.02z"/>
<path class="st8" d="m197.85 533.67c0-0.16 0.05-0.29 0.14-0.39s0.23-0.16 0.42-0.16 0.32 0.05 0.42 0.16c0.1 0.1 0.14 0.23 0.14 0.39 0 0.15-0.05 0.27-0.14 0.37-0.1 0.1-0.24 0.15-0.42 0.15s-0.32-0.05-0.42-0.15c-0.09-0.1-0.14-0.22-0.14-0.37z"/>
<path class="st8" d="m202.23 531.74-0.46 0.52v1.88h-0.86v-7.46h0.86v4.46l0.38-0.53 1.25-1.73h1.03l-1.67 2.19 1.89 3.06h-1z"/>
<path class="st8" d="m208.06 529.69c-0.07-0.01-0.13-0.02-0.19-0.03s-0.12-0.01-0.2-0.01c-0.23 0-0.42 0.06-0.57 0.19s-0.27 0.31-0.35 0.53v3.76h-0.86v-5.25h0.83l0.01 0.53c0.11-0.19 0.24-0.35 0.4-0.46s0.35-0.17 0.57-0.17c0.03 0 0.06 0 0.09 0.01s0.07 0.01 0.1 0.02 0.06 0.01 0.09 0.02 0.05 0.02 0.06 0.02z"/>
</g>
<rect class="st8" x="164.41" y="521.67" width="73.1" height=".36" fill="#fff"/>
<path class="st8" d="m177.43 432.79h-25.43v11.96h25.43c0.73 0 1.33-0.6 1.33-1.33v-9.3c0-0.73-0.6-1.33-1.33-1.33z" fill="#fff"/>
<path class="st8" d="m140.04 444.75v25.43c0 0.73 0.6 1.33 1.33 1.33h9.3c0.73 0 1.33-0.6 1.33-1.33v-25.43z" fill="#fff"/>
<path class="st0" d="m147.08 432.79c-3.89 0-7.05 3.15-7.05 7.05v4.92h11.97v-11.97z" fill="#231815"/>
<g fill="#fff">
<path class="st8" d="m170.92 467.38c1.52 0 2.77-0.6 3.74-1.81l1.99 2.05c-1.58 1.78-3.44 2.66-5.58 2.66s-3.9-0.68-5.29-2.03-2.08-3.06-2.08-5.12 0.71-3.78 2.12-5.16 3.14-2.07 5.18-2.07c2.28 0 4.19 0.87 5.73 2.6l-1.93 2.19c-0.98-1.22-2.2-1.83-3.66-1.83-1.17 0-2.16 0.38-2.99 1.14s-1.24 1.79-1.24 3.08 0.39 2.33 1.17 3.11 1.73 1.19 2.84 1.19z"/>
<path class="st8" d="m190.98 468.2c-1.4 1.37-3.13 2.06-5.19 2.06-2.05 0-3.78-0.69-5.19-2.06s-2.11-3.08-2.11-5.12 0.7-3.75 2.11-5.12c1.4-1.37 3.13-2.06 5.19-2.06 2.05 0 3.78 0.69 5.19 2.06 1.4 1.37 2.11 3.08 2.11 5.12 0 2.05-0.71 3.75-2.11 5.12zm-1.05-5.11c0-1.24-0.4-2.3-1.19-3.17s-1.77-1.31-2.93-1.31-2.14 0.44-2.93 1.31c-0.8 0.88-1.19 1.93-1.19 3.17s0.4 2.29 1.19 3.16c0.8 0.87 1.77 1.3 2.93 1.3s2.14-0.43 2.93-1.3c0.79-0.86 1.19-1.92 1.19-3.16z"/>
<path class="st8" d="m206.82 458.04c1.33 1.21 1.99 2.9 1.99 5.06s-0.65 3.87-1.94 5.13-3.26 1.89-5.91 1.89h-4.75v-13.9h4.91c2.48 0.01 4.38 0.61 5.7 1.82zm-2.27 8.27c0.76-0.72 1.14-1.76 1.14-3.12s-0.38-2.42-1.14-3.15c-0.76-0.74-1.93-1.1-3.51-1.1h-1.73v8.45h1.97c1.42-0.01 2.51-0.37 3.27-1.08z"/>
<path class="st8" d="m222.01 456.23v2.76h-6.92v2.86h6.22v2.64h-6.22v2.88h7.14v2.74h-10.24v-13.9h10.02z"/>
<path class="st8" d="m174.08 478.95v2.72h-6.44v3h6.12v2.72h-6.12v5.45h-3.1v-13.9h9.54z"/>
<path class="st8" d="m188.89 490.93c-1.4 1.37-3.13 2.06-5.19 2.06-2.05 0-3.78-0.69-5.19-2.06-1.4-1.37-2.11-3.08-2.11-5.12s0.7-3.75 2.11-5.12c1.4-1.37 3.13-2.06 5.19-2.06 2.05 0 3.78 0.69 5.19 2.06 1.4 1.37 2.11 3.08 2.11 5.12s-0.7 3.74-2.11 5.12zm-1.05-5.11c0-1.24-0.4-2.3-1.19-3.17-0.8-0.87-1.77-1.31-2.93-1.31s-2.14 0.44-2.93 1.31c-0.8 0.88-1.19 1.93-1.19 3.17s0.4 2.29 1.19 3.16c0.8 0.87 1.77 1.3 2.93 1.3s2.14-0.43 2.93-1.3 1.19-1.92 1.19-3.16z"/>
<path class="st8" d="m205.39 483.56c0 2.23-0.88 3.67-2.64 4.31l3.52 4.97h-3.82l-3.08-4.43h-2.15v4.43h-3.1v-13.9h5.27c2.16 0 3.7 0.36 4.62 1.09 0.92 0.74 1.38 1.91 1.38 3.53zm-3.73 1.65c0.38-0.34 0.58-0.89 0.58-1.64s-0.2-1.26-0.6-1.54-1.09-0.42-2.09-0.42h-2.33v4.12h2.27c1.06 0 1.78-0.18 2.17-0.52z"/>
<path class="st8" d="m164.54 501.67h3.1v5.71l5.25-5.71h3.84l-5.53 6.14c0.48 0.66 1.36 1.9 2.64 3.71s2.25 3.16 2.88 4.05h-3.62l-4.08-5.49-1.39 1.55v3.94h-3.1v-13.9z"/>
<path class="st8" d="m190.12 513.65c-1.41 1.37-3.13 2.06-5.19 2.06s-3.78-0.69-5.19-2.06-2.11-3.08-2.11-5.12 0.7-3.75 2.11-5.12c1.4-1.37 3.13-2.06 5.19-2.06s3.78 0.69 5.19 2.06c1.4 1.37 2.11 3.08 2.11 5.12s-0.7 3.75-2.11 5.12zm-1.05-5.11c0-1.24-0.4-2.3-1.19-3.17-0.8-0.87-1.77-1.31-2.93-1.31s-2.14 0.44-2.93 1.31c-0.8 0.88-1.19 1.93-1.19 3.17s0.4 2.29 1.19 3.16c0.8 0.87 1.77 1.3 2.93 1.3s2.14-0.43 2.93-1.3 1.19-1.92 1.19-3.16z"/>
<path class="st8" d="m206.63 506.28c0 2.23-0.88 3.67-2.64 4.31l3.52 4.97h-3.82l-3.08-4.43h-2.15v4.43h-3.1v-13.9h5.27c2.16 0 3.7 0.36 4.62 1.09 0.92 0.74 1.38 1.91 1.38 3.53zm-3.74 1.65c0.38-0.34 0.58-0.89 0.58-1.64s-0.2-1.26-0.6-1.54-1.09-0.42-2.09-0.42h-2.33v4.12h2.27c1.06 0 1.78-0.17 2.17-0.52z"/>
<path class="st8" d="m220.32 501.67v2.76h-6.92v2.86h6.22v2.64h-6.22v2.88h7.14v2.74h-10.24v-13.9h10.02z"/>
<path class="st8" d="m233.7 515.57-1.29-3h-5.83l-1.29 3h-3.3l6-13.9h3l6 13.9zm-4.19-9.77-1.75 4.04h3.48z"/>
</g>
<g fill="#fff">
<path class="st8" d="m166.41 533.5c0.13 0 0.25-0.02 0.36-0.06s0.21-0.1 0.3-0.18 0.16-0.19 0.21-0.31c0.05-0.13 0.08-0.28 0.09-0.46h0.81c-0.01 0.26-0.06 0.5-0.16 0.72-0.1 0.21-0.23 0.4-0.39 0.55s-0.35 0.27-0.56 0.36c-0.21 0.08-0.43 0.13-0.67 0.13-0.34 0-0.64-0.05-0.89-0.17-0.25-0.11-0.46-0.27-0.62-0.48-0.17-0.21-0.29-0.46-0.37-0.76s-0.12-0.64-0.12-1.02v-0.59c0-0.38 0.04-0.72 0.12-1.02s0.2-0.55 0.37-0.76 0.37-0.37 0.62-0.48 0.54-0.17 0.88-0.17c0.26 0 0.51 0.04 0.72 0.13s0.4 0.21 0.55 0.37 0.27 0.36 0.36 0.6 0.14 0.5 0.15 0.8h-0.81c-0.02-0.39-0.11-0.68-0.28-0.87s-0.4-0.29-0.69-0.29c-0.23 0-0.41 0.04-0.56 0.12s-0.26 0.19-0.35 0.34-0.15 0.32-0.18 0.53-0.05 0.44-0.05 0.69v0.59c0 0.26 0.02 0.49 0.05 0.7s0.09 0.39 0.18 0.53c0.09 0.15 0.2 0.26 0.35 0.34 0.16 0.08 0.35 0.12 0.58 0.12z"/>
<path class="st8" d="m169.5 531.27c0-0.41 0.05-0.77 0.16-1.08s0.25-0.57 0.43-0.77c0.18-0.21 0.4-0.36 0.64-0.47 0.25-0.11 0.51-0.16 0.79-0.16s0.55 0.05 0.8 0.16c0.25 0.1 0.47 0.26 0.65 0.47s0.33 0.47 0.43 0.77c0.11 0.31 0.16 0.67 0.16 1.08v0.5c0 0.41-0.05 0.77-0.16 1.08s-0.25 0.57-0.43 0.77c-0.18 0.21-0.4 0.36-0.64 0.47-0.25 0.1-0.51 0.16-0.8 0.16s-0.55-0.05-0.8-0.16c-0.25-0.1-0.46-0.26-0.65-0.47-0.18-0.21-0.33-0.47-0.43-0.77-0.11-0.31-0.16-0.67-0.16-1.08v-0.5zm0.85 0.49c0 0.29 0.03 0.54 0.09 0.76s0.14 0.4 0.25 0.54 0.23 0.25 0.37 0.33c0.14 0.07 0.3 0.11 0.47 0.11 0.78 0 1.17-0.58 1.17-1.74v-0.5c0-0.29-0.03-0.54-0.09-0.76s-0.14-0.4-0.25-0.54c-0.11-0.15-0.23-0.26-0.37-0.33s-0.3-0.11-0.47-0.11-0.32 0.04-0.46 0.11-0.27 0.18-0.37 0.33-0.19 0.33-0.25 0.54c-0.06 0.22-0.09 0.47-0.09 0.76z"/>
<path class="st8" d="m174.98 531.27c0-0.43 0.04-0.8 0.13-1.12 0.08-0.31 0.2-0.57 0.36-0.77 0.15-0.2 0.34-0.35 0.56-0.45s0.46-0.15 0.72-0.15 0.49 0.05 0.68 0.16c0.19 0.1 0.36 0.26 0.49 0.45v-2.72h0.86v7.46h-0.79l-0.04-0.56c-0.14 0.21-0.3 0.38-0.5 0.49s-0.43 0.17-0.71 0.17c-0.26 0-0.5-0.05-0.71-0.15-0.22-0.1-0.4-0.26-0.55-0.46s-0.27-0.46-0.36-0.77-0.13-0.67-0.13-1.09v-0.49zm0.86 0.49c0 0.59 0.09 1.02 0.26 1.3s0.46 0.41 0.85 0.41c0.24 0 0.44-0.06 0.59-0.18s0.27-0.28 0.37-0.47v-2.65c-0.1-0.18-0.22-0.34-0.38-0.45-0.15-0.12-0.35-0.18-0.57-0.18-0.4 0-0.69 0.14-0.86 0.42s-0.26 0.71-0.26 1.3z"/>
<path class="st8" d="m182.47 534.24c-0.31 0-0.6-0.05-0.85-0.14s-0.47-0.24-0.64-0.43c-0.18-0.19-0.31-0.44-0.4-0.73s-0.14-0.64-0.14-1.04v-0.59c0-0.46 0.06-0.85 0.17-1.17s0.26-0.58 0.43-0.78c0.18-0.2 0.39-0.34 0.62-0.43s0.47-0.13 0.72-0.13c0.33 0 0.61 0.05 0.84 0.16s0.42 0.27 0.57 0.48 0.26 0.47 0.33 0.78 0.1 0.66 0.1 1.06v0.5h-2.93v0.12c0 0.56 0.11 0.97 0.32 1.23s0.52 0.38 0.91 0.38c0.15 0 0.28-0.01 0.39-0.04 0.12-0.03 0.22-0.07 0.32-0.12s0.19-0.12 0.27-0.19 0.16-0.15 0.23-0.24l0.45 0.54c-0.07 0.1-0.16 0.2-0.26 0.29s-0.22 0.18-0.36 0.25-0.3 0.13-0.48 0.18-0.38 0.06-0.61 0.06zm-0.1-4.71c-0.15 0-0.29 0.02-0.41 0.07-0.13 0.05-0.24 0.13-0.33 0.24-0.1 0.12-0.17 0.27-0.23 0.46s-0.09 0.44-0.11 0.73h2.07v-0.12c-0.01-0.2-0.03-0.39-0.07-0.56-0.03-0.17-0.09-0.32-0.16-0.44s-0.17-0.22-0.29-0.29c-0.13-0.06-0.28-0.09-0.47-0.09z"/>
<path class="st8" d="m186.12 534.14v-4.56h-0.68v-0.69h0.68v-0.55c0-0.28 0.03-0.53 0.1-0.75s0.17-0.4 0.3-0.55 0.29-0.26 0.48-0.34 0.4-0.11 0.63-0.11c0.17 0 0.34 0.03 0.52 0.08l-0.04 0.73c-0.05-0.01-0.12-0.02-0.19-0.03s-0.14-0.01-0.2-0.01c-0.23 0-0.41 0.09-0.54 0.25-0.13 0.17-0.19 0.41-0.19 0.73v0.55h0.9v0.69h-0.9v4.56z"/>
<path class="st8" d="m189.2 531.27c0-0.41 0.05-0.77 0.16-1.08s0.25-0.57 0.43-0.77c0.18-0.21 0.4-0.36 0.64-0.47 0.25-0.11 0.51-0.16 0.79-0.16s0.55 0.05 0.8 0.16c0.25 0.1 0.47 0.26 0.65 0.47s0.33 0.47 0.43 0.77c0.11 0.31 0.16 0.67 0.16 1.08v0.5c0 0.41-0.05 0.77-0.16 1.08-0.1 0.31-0.25 0.57-0.43 0.77-0.18 0.21-0.4 0.36-0.64 0.47-0.25 0.1-0.51 0.16-0.8 0.16s-0.55-0.05-0.8-0.16c-0.25-0.1-0.46-0.26-0.64-0.47s-0.33-0.47-0.43-0.77c-0.1-0.31-0.16-0.67-0.16-1.08zm0.86 0.49c0 0.29 0.03 0.54 0.09 0.76s0.14 0.4 0.25 0.54 0.23 0.25 0.37 0.33c0.14 0.07 0.3 0.11 0.47 0.11 0.78 0 1.17-0.58 1.17-1.74v-0.5c0-0.29-0.03-0.54-0.09-0.76s-0.14-0.4-0.25-0.54c-0.1-0.15-0.23-0.26-0.37-0.33s-0.3-0.11-0.47-0.11-0.32 0.04-0.46 0.11-0.27 0.18-0.37 0.33-0.19 0.33-0.24 0.54c-0.06 0.22-0.09 0.47-0.09 0.76v0.5z"/>
<path class="st8" d="m197.04 529.69c-0.07-0.01-0.13-0.02-0.19-0.03s-0.12-0.01-0.2-0.01c-0.23 0-0.43 0.06-0.58 0.19s-0.27 0.31-0.35 0.53v3.76h-0.86v-5.25h0.83l0.01 0.53c0.11-0.19 0.24-0.35 0.4-0.46s0.35-0.17 0.58-0.17c0.03 0 0.06 0 0.09 0.01s0.07 0.01 0.1 0.02 0.06 0.01 0.09 0.02 0.05 0.02 0.06 0.02z"/>
<path class="st8" d="m197.85 533.67c0-0.16 0.05-0.29 0.14-0.39s0.23-0.16 0.42-0.16 0.32 0.05 0.42 0.16c0.1 0.1 0.14 0.23 0.14 0.39 0 0.15-0.05 0.27-0.14 0.37-0.1 0.1-0.24 0.15-0.42 0.15s-0.32-0.05-0.42-0.15c-0.09-0.1-0.14-0.22-0.14-0.37z"/>
<path class="st8" d="m202.23 531.74-0.46 0.52v1.88h-0.86v-7.46h0.86v4.46l0.38-0.53 1.25-1.73h1.03l-1.67 2.19 1.89 3.06h-1z"/>
<path class="st8" d="m208.06 529.69c-0.07-0.01-0.13-0.02-0.19-0.03s-0.12-0.01-0.2-0.01c-0.23 0-0.42 0.06-0.57 0.19s-0.27 0.31-0.35 0.53v3.76h-0.86v-5.25h0.83l0.01 0.53c0.11-0.19 0.24-0.35 0.4-0.46s0.35-0.17 0.57-0.17c0.03 0 0.06 0 0.09 0.01s0.07 0.01 0.1 0.02 0.06 0.01 0.09 0.02 0.05 0.02 0.06 0.02z"/>
</g>
<rect class="st8" x="164.41" y="521.67" width="73.1" height=".36" fill="#fff"/>
</g>
</g>
<style type="text/css">.st0{fill:#231815;}
	.st1{font-family:'AppleSDGothicNeo-SemiBold-KSCpc-EUC-H';}
	.st2{font-size:15px;}
	.st3{font-size:10px;}
	.st4{fill:none;stroke:#C9CACA;stroke-width:0.5;stroke-miterlimit:10;}
	.st5{fill:#F32735;}
	.st6{fill:#00A0DF;}
	.st7{fill:#3E3A39;}
	.st8{fill:#FFFFFF;}</style>
</svg>
